HIERARCHY
ROOT hips
{
	OFFSET 0.000000 29.995300 -0.000000
	CHANNELS 6 Xposition Yposition Zposition Zrotation Yrotation Xrotation 
	JOINT Chest
	{
		OFFSET 0.000000 10.123600 0.695200
		CHANNELS 3 Zrotation Yrotation Xrotation
		JOINT Chest2
		{
			OFFSET 0.000000 15.405600 0.012300
			CHANNELS 3 Zrotation Yrotation Xrotation
			JOINT Chest3
			{
				OFFSET 0.000000 11.482400 -0.009100
				CHANNELS 3 Zrotation Yrotation Xrotation
				JOINT Neck
				{
					OFFSET 0.000000 25.678300 -0.023300
					CHANNELS 3 Zrotation Yrotation Xrotation
					JOINT Head
					{
						OFFSET 0.000000 13.458800 0.864200
						CHANNELS 3 Zrotation Yrotation Xrotation
						JOINT Head_End
						{
							OFFSET 0.000000 11.713200 -0.000000
							CHANNELS 3 Zrotation Yrotation Xrotation
							End Site
							{
								OFFSET 0.005000 0.000000 0.000000
							}
						}
					}
				}
				JOINT LeftCollar
				{
					OFFSET 12.227600 21.516500 -0.711700
					CHANNELS 3 Zrotation Yrotation Xrotation
					JOINT LeftShoulder
					{
						OFFSET 10.451400 0.021300 -0.002200
						CHANNELS 3 Zrotation Yrotation Xrotation
						JOINT LeftElbow
						{
							OFFSET 26.123400 0.000000 0.000000
							CHANNELS 3 Zrotation Yrotation Xrotation
							JOINT LeftWrist
							{
								OFFSET 25.245600 0.035600 0.002400
								CHANNELS 3 Zrotation Yrotation Xrotation
								JOINT Middle_00_L
								{
									OFFSET 11.653500 0.000000 0.000000
									CHANNELS 3 Zrotation Yrotation Xrotation
									JOINT Middle_01_L
									{
										OFFSET 4.384300 0.000000 0.000000
										CHANNELS 3 Zrotation Yrotation Xrotation
										JOINT Middle_02_L
										{
											OFFSET 3.470400 -0.000300 0.000000
											CHANNELS 3 Zrotation Yrotation Xrotation
											JOINT Middle_03_L
											{
												OFFSET 2.422200 0.000300 0.000000
												CHANNELS 3 Zrotation Yrotation Xrotation
												End Site
												{
													OFFSET 0.005000 0.000000 0.000000
												}
											}
										}
									}
								}
								JOINT Index_00_L
								{
									OFFSET 11.320700 0.000000 3.214800
									CHANNELS 3 Zrotation Yrotation Xrotation
									JOINT Index_01_L
									{
										OFFSET 3.752500 0.000000 0.000000
										CHANNELS 3 Zrotation Yrotation Xrotation
										JOINT Index_02_L
										{
											OFFSET 2.704900 0.000000 0.000300
											CHANNELS 3 Zrotation Yrotation Xrotation
											JOINT Index_03_L
											{
												OFFSET 2.288400 0.000000 -0.000300
												CHANNELS 3 Zrotation Yrotation Xrotation
												End Site
												{
													OFFSET 0.005000 0.000000 0.000000
												}
											}
										}
									}
								}
								JOINT Thumb_00_L
								{
									OFFSET 2.189000 0.000000 5.112700
									CHANNELS 3 Zrotation Yrotation Xrotation
									JOINT Thumb_01_L
									{
										OFFSET 5.672300 0.000000 0.000000
										CHANNELS 3 Zrotation Yrotation Xrotation
										JOINT Thumb_02_L
										{
											OFFSET 3.353600 0.000000 0.000400
											CHANNELS 3 Zrotation Yrotation Xrotation
											JOINT Thumb_03_L
											{
												OFFSET 3.066600 0.000000 -0.000400
												CHANNELS 3 Zrotation Yrotation Xrotation
												End Site
												{
													OFFSET 0.005000 0.000000 0.000000
												}
											}
										}
									}
								}
								JOINT Ring_00_L
								{
									OFFSET 11.421100 0.000000 -3.087400
									CHANNELS 3 Zrotation Yrotation Xrotation
									JOINT Ring_01_L
									{
										OFFSET 4.107700 0.000000 0.000000
										CHANNELS 3 Zrotation Yrotation Xrotation
										JOINT Ring_02_L
										{
											OFFSET 2.971800 0.000000 0.000500
											CHANNELS 3 Zrotation Yrotation Xrotation
											JOINT Ring_03_L
											{
												OFFSET 2.159200 0.000000 -0.000500
												CHANNELS 3 Zrotation Yrotation Xrotation
												End Site
												{
													OFFSET 0.005000 0.000000 0.000000
												}
											}
										}
									}
								}
								JOINT Little_00_L
								{
									OFFSET 10.838200 0.000000 -5.836000
									CHANNELS 3 Zrotation Yrotation Xrotation
									JOINT Little_01_L
									{
										OFFSET 3.568800 0.000000 0.000000
										CHANNELS 3 Zrotation Yrotation Xrotation
										JOINT Little_02_L
										{
											OFFSET 2.336100 0.000000 0.000200
											CHANNELS 3 Zrotation Yrotation Xrotation
											JOINT Little_03_L
											{
												OFFSET 1.912900 0.000000 -0.000200
												CHANNELS 3 Zrotation Yrotation Xrotation
												End Site
												{
													OFFSET 0.005000 0.000000 0.000000
												}
											}
										}
									}
								}
							}
						}
					}
				}
				JOINT RightCollar
				{
					OFFSET -12.227600 21.516500 -0.711700
					CHANNELS 3 Zrotation Yrotation Xrotation
					JOINT RightShoulder
					{
						OFFSET -10.451300 0.021300 -0.002200
						CHANNELS 3 Zrotation Yrotation Xrotation
						JOINT RightElbow
						{
							OFFSET -26.123400 0.000000 0.000000
							CHANNELS 3 Zrotation Yrotation Xrotation
							JOINT RightWrist
							{
								OFFSET -25.245800 0.035400 0.002000
								CHANNELS 3 Zrotation Yrotation Xrotation
								JOINT Middle_00_R
								{
									OFFSET -11.654000 0.000000 0.000000
									CHANNELS 3 Zrotation Yrotation Xrotation
									JOINT Middle_01_R
									{
										OFFSET -4.408600 0.000000 0.000000
										CHANNELS 3 Zrotation Yrotation Xrotation
										JOINT Middle_02_R
										{
											OFFSET -3.470400 0.000000 0.000000
											CHANNELS 3 Zrotation Yrotation Xrotation
											JOINT Middle_03_R
											{
												OFFSET -2.422200 0.000000 0.000000
												CHANNELS 3 Zrotation Yrotation Xrotation
												End Site
												{
													OFFSET 0.005000 0.000000 0.000000
												}
											}
										}
									}
								}
								JOINT Ring_00_R
								{
									OFFSET -11.459300 0.000000 -3.067300
									CHANNELS 3 Zrotation Yrotation Xrotation
									JOINT Ring_01_R
									{
										OFFSET -4.107700 0.000000 0.000000
										CHANNELS 3 Zrotation Yrotation Xrotation
										JOINT Ring_02_R
										{
											OFFSET -2.971800 0.000000 0.000000
											CHANNELS 3 Zrotation Yrotation Xrotation
											JOINT Ring_03_R
											{
												OFFSET -2.159200 0.000000 0.000000
												CHANNELS 3 Zrotation Yrotation Xrotation
												End Site
												{
													OFFSET 0.005000 0.000000 0.000000
												}
											}
										}
									}
								}
								JOINT Little_00_R
								{
									OFFSET -10.887000 0.000000 -5.818300
									CHANNELS 3 Zrotation Yrotation Xrotation
									JOINT Little_01_R
									{
										OFFSET -3.568800 0.000000 0.000000
										CHANNELS 3 Zrotation Yrotation Xrotation
										JOINT Little_02_R
										{
											OFFSET -2.336100 0.000000 0.000000
											CHANNELS 3 Zrotation Yrotation Xrotation
											JOINT Little_03_R
											{
												OFFSET -1.912900 0.000000 0.000000
												CHANNELS 3 Zrotation Yrotation Xrotation
												End Site
												{
													OFFSET 0.005000 0.000000 0.000000
												}
											}
										}
									}
								}
								JOINT Index_00_R
								{
									OFFSET -11.333200 0.000000 3.234400
									CHANNELS 3 Zrotation Yrotation Xrotation
									JOINT Index_01_R
									{
										OFFSET -3.752500 0.000000 0.000000
										CHANNELS 3 Zrotation Yrotation Xrotation
										JOINT Index_02_R
										{
											OFFSET -2.704900 0.000000 0.000000
											CHANNELS 3 Zrotation Yrotation Xrotation
											JOINT Index_03_R
											{
												OFFSET -2.288400 0.000000 0.000000
												CHANNELS 3 Zrotation Yrotation Xrotation
												End Site
												{
													OFFSET 0.005000 0.000000 0.000000
												}
											}
										}
									}
								}
								JOINT Thumb_00_R
								{
									OFFSET -2.193600 -0.231700 5.095700
									CHANNELS 3 Zrotation Yrotation Xrotation
									JOINT Thumb_01_R
									{
										OFFSET -5.672200 0.231700 0.000000
										CHANNELS 3 Zrotation Yrotation Xrotation
										JOINT Thumb_02_R
										{
											OFFSET -3.353600 0.000000 0.000000
											CHANNELS 3 Zrotation Yrotation Xrotation
											JOINT Thumb_03_R
											{
												OFFSET -3.066500 0.000000 0.000000
												CHANNELS 3 Zrotation Yrotation Xrotation
												End Site
												{
													OFFSET 0.005000 0.000000 0.000000
												}
											}
										}
									}
								}
							}
						}
					}
				}
			}
		}
	}
	JOINT LeftHip
	{
		OFFSET 6.356900 0.000000 0.000000
		CHANNELS 3 Zrotation Yrotation Xrotation
		JOINT LeftKnee
		{
			OFFSET -0.000100 -37.930500 0.000000
			CHANNELS 3 Zrotation Yrotation Xrotation
			JOINT LeftAnkle
			{
				OFFSET -0.000100 -42.440200 -0.085400
				CHANNELS 3 Zrotation Yrotation Xrotation
				JOINT LeftToe
				{
					OFFSET 0.135400 -9.338000 13.882500
					CHANNELS 3 Zrotation Yrotation Xrotation
					End Site
					{
						OFFSET 0.005000 0.000000 0.000000
					}
				}
			}
		}
	}
	JOINT RightHip
	{
		OFFSET -6.356900 0.000000 0.000000
		CHANNELS 3 Zrotation Yrotation Xrotation
		JOINT RightKnee
		{
			OFFSET 0.000100 -37.930500 0.000000
			CHANNELS 3 Zrotation Yrotation Xrotation
			JOINT RightAnkle
			{
				OFFSET 0.000100 -42.440200 -0.085400
				CHANNELS 3 Zrotation Yrotation Xrotation
				JOINT RightToe
				{
					OFFSET -0.135400 -9.338000 13.882500
					CHANNELS 3 Zrotation Yrotation Xrotation
					End Site
					{
						OFFSET 0.005000 0.000000 0.000000
					}
				}
			}
		}
	}
}
MOTION
Frames: 4
Frame Time: 0.050000
-0.009935 30.026717 -0.018173 1.047703 11.165176 -74.887484 1.047703 11.165176 -74.887484 1.047703 11.165176 -74.887484 1.047703 11.165176 -74.887484 13.818938 36.623405 -35.909134 13.818938 36.623405 -35.909134 13.818938 36.623405 -35.909134 28.526211 129.016769 -6.620680 46.255518 133.354234 33.359264 8.566057 126.867773 -60.361470 -2.262916 -169.480078 -58.172245 0.000000 0.000000 0.000000 0.000000 0.000000 0.000000 0.000000 0.000000 0.000000 0.000000 0.000000 0.000000 0.000000 0.000000 0.000000 0.000000 0.000000 0.000000 0.000000 0.000000 0.000000 0.000000 0.000000 0.000000 0.000000 0.000000 0.000000 0.000000 0.000000 0.000000 0.000000 0.000000 0.000000 0.000000 0.000000 0.000000 0.000000 0.000000 0.000000 0.000000 0.000000 0.000000 0.000000 0.000000 0.000000 0.000000 0.000000 0.000000 0.000000 0.000000 0.000000 0.000000 0.000000 0.000000 0.000000 0.000000 0.000000 0.000000 0.000000 0.000000 -34.473789 -50.983231 6.620680 -53.561975 -34.329893 47.944817 5.919850 11.599980 -33.474641 5.707784 31.093461 -60.467571 0.000000 0.000000 0.000000 0.000000 0.000000 0.000000 0.000000 0.000000 0.000000 0.000000 0.000000 0.000000 0.000000 0.000000 0.000000 0.000000 0.000000 0.000000 0.000000 0.000000 0.000000 0.000000 0.000000 0.000000 0.000000 0.000000 0.000000 0.000000 0.000000 0.000000 0.000000 0.000000 0.000000 0.000000 0.000000 0.000000 0.000000 0.000000 0.000000 0.000000 0.000000 0.000000 0.000000 0.000000 0.000000 0.000000 0.000000 0.000000 0.000000 0.000000 0.000000 0.000000 0.000000 0.000000 0.000000 0.000000 0.000000 0.000000 0.000000 0.000000 -62.180651 -175.182654 64.043392 60.316242 169.560928 53.385526 44.098229 76.702578 35.257716 40.801655 68.039341 24.888716 -62.252097 -173.411965 71.984325 -61.089061 -166.064917 68.352073 54.728964 37.490885 54.287834 51.556779 34.438301 41.381904
-0.011852 30.027023 -0.016977 0.949039 10.245159 -75.089268 0.949039 10.245159 -75.089268 0.949039 10.245159 -75.089268 0.949039 10.245159 -75.089268 14.007752 37.899406 -36.185185 14.007752 37.899406 -36.185185 14.007752 37.899406 -36.185185 28.470866 129.784222 -6.671498 46.357592 134.323031 33.201244 8.079430 127.932893 -61.614476 -0.886798 -175.233555 -61.963224 0.000000 0.000000 0.000000 0.000000 0.000000 0.000000 0.000000 0.000000 0.000000 0.000000 0.000000 0.000000 0.000000 0.000000 0.000000 0.000000 0.000000 0.000000 0.000000 0.000000 0.000000 0.000000 0.000000 0.000000 0.000000 0.000000 0.000000 0.000000 0.000000 0.000000 0.000000 0.000000 0.000000 0.000000 0.000000 0.000000 0.000000 0.000000 0.000000 0.000000 0.000000 0.000000 0.000000 0.000000 0.000000 0.000000 0.000000 0.000000 0.000000 0.000000 0.000000 0.000000 0.000000 0.000000 0.000000 0.000000 0.000000 0.000000 0.000000 0.000000 -34.529134 -50.215778 6.671498 -53.682023 -34.068578 48.177424 5.904277 11.643436 -33.645697 5.638702 31.356034 -60.966494 0.000000 0.000000 0.000000 0.000000 0.000000 0.000000 0.000000 0.000000 0.000000 0.000000 0.000000 0.000000 0.000000 0.000000 0.000000 0.000000 0.000000 0.000000 0.000000 0.000000 0.000000 0.000000 0.000000 0.000000 0.000000 0.000000 0.000000 0.000000 0.000000 0.000000 0.000000 0.000000 0.000000 0.000000 0.000000 0.000000 0.000000 0.000000 0.000000 0.000000 0.000000 0.000000 0.000000 0.000000 0.000000 0.000000 0.000000 0.000000 0.000000 0.000000 0.000000 0.000000 0.000000 0.000000 0.000000 0.000000 0.000000 0.000000 0.000000 0.000000 -62.172733 -175.249428 63.508438 60.444918 170.506762 52.162415 44.013136 77.743934 35.127790 40.693921 68.926809 24.727786 -62.215365 -173.194746 71.718084 -60.767968 -164.553192 67.235638 54.451705 38.349463 53.799182 51.013275 35.279126 40.308985
-0.011837 30.027235 -0.017375 0.850278 9.282392 -75.263636 0.850278 9.282392 -75.263636 0.850278 9.282392 -75.263636 0.850278 9.282392 -75.263636 13.625622 35.951821 -36.010359 13.625622 35.951821 -36.010359 13.625622 35.951821 -36.010359 28.502741 129.058029 -6.669380 45.754936 133.912100 31.809965 8.360737 127.023490 -60.981854 0.120410 179.274599 -64.626060 0.000000 0.000000 0.000000 0.000000 0.000000 0.000000 0.000000 0.000000 0.000000 0.000000 0.000000 0.000000 0.000000 0.000000 0.000000 0.000000 0.000000 0.000000 0.000000 0.000000 0.000000 0.000000 0.000000 0.000000 0.000000 0.000000 0.000000 0.000000 0.000000 0.000000 0.000000 0.000000 0.000000 0.000000 0.000000 0.000000 0.000000 0.000000 0.000000 0.000000 0.000000 0.000000 0.000000 0.000000 0.000000 0.000000 0.000000 0.000000 0.000000 0.000000 0.000000 0.000000 0.000000 0.000000 0.000000 0.000000 0.000000 0.000000 0.000000 0.000000 -34.497259 -50.941971 6.669380 -53.891875 -35.417632 49.887102 4.378041 9.587163 -36.895920 3.995485 24.593315 -64.118225 0.000000 0.000000 0.000000 0.000000 0.000000 0.000000 0.000000 0.000000 0.000000 0.000000 0.000000 0.000000 0.000000 0.000000 0.000000 0.000000 0.000000 0.000000 0.000000 0.000000 0.000000 0.000000 0.000000 0.000000 0.000000 0.000000 0.000000 0.000000 0.000000 0.000000 0.000000 0.000000 0.000000 0.000000 0.000000 0.000000 0.000000 0.000000 0.000000 0.000000 0.000000 0.000000 0.000000 0.000000 0.000000 0.000000 0.000000 0.000000 0.000000 0.000000 0.000000 0.000000 0.000000 0.000000 0.000000 0.000000 0.000000 0.000000 0.000000 0.000000 -62.110533 -174.840047 63.733596 60.514780 170.534408 52.857649 43.944143 76.434140 34.791337 40.552180 67.725075 24.161358 -62.066832 -171.617414 72.284883 -60.691678 -163.086618 68.326229 54.432801 37.122729 52.971652 51.055746 34.539266 39.915200
-0.012816 30.027666 -0.016433 0.820392 8.933519 -75.233115 0.820392 8.933519 -75.233115 0.820392 8.933519 -75.233115 0.820392 8.933519 -75.233115 13.748078 36.991889 -36.340209 13.748078 36.991889 -36.340209 13.748078 36.991889 -36.340209 28.600135 129.422854 -6.418260 50.371064 140.101784 41.353369 9.885181 117.311352 -58.844383 2.872299 159.560126 -67.560828 0.000000 0.000000 0.000000 0.000000 0.000000 0.000000 0.000000 0.000000 0.000000 0.000000 0.000000 0.000000 0.000000 0.000000 0.000000 0.000000 0.000000 0.000000 0.000000 0.000000 0.000000 0.000000 0.000000 0.000000 0.000000 0.000000 0.000000 0.000000 0.000000 0.000000 0.000000 0.000000 0.000000 0.000000 0.000000 0.000000 0.000000 0.000000 0.000000 0.000000 0.000000 0.000000 0.000000 0.000000 0.000000 0.000000 0.000000 0.000000 0.000000 0.000000 0.000000 0.000000 0.000000 0.000000 0.000000 0.000000 0.000000 0.000000 0.000000 0.000000 -34.399865 -50.577146 6.418260 -54.148492 -35.370395 50.777529 4.212852 9.515435 -37.786219 3.967303 24.170029 -63.914409 0.000000 0.000000 0.000000 0.000000 0.000000 0.000000 0.000000 0.000000 0.000000 0.000000 0.000000 0.000000 0.000000 0.000000 0.000000 0.000000 0.000000 0.000000 0.000000 0.000000 0.000000 0.000000 0.000000 0.000000 0.000000 0.000000 0.000000 0.000000 0.000000 0.000000 0.000000 0.000000 0.000000 0.000000 0.000000 0.000000 0.000000 0.000000 0.000000 0.000000 0.000000 0.000000 0.000000 0.000000 0.000000 0.000000 0.000000 0.000000 0.000000 0.000000 0.000000 0.000000 0.000000 0.000000 0.000000 0.000000 0.000000 0.000000 0.000000 0.000000 -62.099943 -174.956375 62.938792 60.448056 171.184750 50.141359 44.822588 78.385402 37.490601 41.780709 68.794797 27.688244 -62.055798 -172.009297 71.275670 -60.477257 -164.686865 64.411358 54.928924 38.743448 55.775008 51.776383 35.074308 42.527300
